<svg data-v-0dd9719b="" version="1.0" xmlns="http://www.w3.org/2000/svg" xmlns:xlink="http://www.w3.org/1999/xlink" width="100%" height="100%" viewBox="0 0 340.000000 250.000000" preserveAspectRatio="xMidYMid meet" color-interpolation-filters="sRGB" style="margin: auto;"> <rect data-v-0dd9719b="" x="0" y="0" width="100%" height="100%" fill="#fff" fill-opacity="1" class="background"></rect> <rect data-v-0dd9719b="" x="0" y="0" width="100%" height="100%" fill="url(#watermark)" fill-opacity="1" class="watermarklayer"></rect> <g data-v-0dd9719b="" fill="#333" class="icon-text-wrapper icon-svg-group iconsvg" transform="translate(47.93964385986328,94.58637428283691)"><g class="iconsvg-imagesvg" transform="translate(0,0)"><g><rect fill="#333" fill-opacity="0" stroke-width="2" x="0" y="0" width="60" height="60.8272506082725" class="image-rect"></rect> <svg x="0" y="0" width="60" height="60.8272506082725" filtersec="colorsb982470237" class="image-svg-svg primary" style="overflow: visible;"><svg xmlns="http://www.w3.org/2000/svg" viewBox="-0.01667151227593422 -0.0010506667895242572 98.62667083740234 99.98663330078125"><path d="M4.5 70.71a49.73 49.73 0 0 0 13.39 17.61L97.16 46.7z" fill="#2a3d8f"></path><path d="M19.15 89.34a50 50 0 0 0 79.46-27.68z" fill="#272660"></path><path d="M76.66 7.71A50 50 0 0 0 0 51.29l82.29-39.45a51 51 0 0 0-5.63-4.13z" fill="#29aae1"></path><path d="M88 25L.06 52.31A50.25 50.25 0 0 0 4.15 70z" fill="#1f76bb"></path></svg></svg> <!----></g></g> <g transform="translate(67,4.823436737060547)"><g data-gra="path-name" fill-rule="" class="tp-name iconsvg-namesvg" transform="translate(0,0)"><g transform="scale(1)"><g><path d="M41.94 1.67L41.94 1.67 34.38 1.67Q33.66 1.67 33.48 0.94L33.48 0.94 30.78-6.17Q30.55-7.15 30.55-9.58L30.55-9.58Q30.55-10.53 31.54-10.53L31.54-10.53 38.56-10.53Q39.51-10.53 39.78-9.9L39.78-9.9 42.57-3.65Q42.84-3.01 42.84-2.61L42.84-2.61 42.8 0.58Q42.8 1.67 41.94 1.67ZM26.37 2.25L26.37 2.25 16.43 2.21Q15.25 2.21 15.25 0.99L15.25 0.99 15.25-5.71Q15.25-6.93 16.47-6.93L16.47-6.93 18.59-6.93 18.59-11.56 4.81-11.56Q3.55-11.56 3.51-13.05L3.51-13.05 3.51-18.59Q3.55-19.71 4.18-20.47L4.18-20.47 6.61-23.58 3.38-23.58Q2.25-23.58 2.25-24.93L2.25-24.93 2.25-30.24Q2.25-31.68 3.28-31.68L3.28-31.68 10.3-31.59 12.73-33.8Q13.5-34.24 14.08-34.24L14.08-34.24 20.61-34.2Q21.2-34.2 21.29-33.52L21.29-33.52 21.29-31.59 41.58-31.59Q42.75-31.59 42.75-30.24L42.75-30.24 42.8-24.93Q42.8-23.58 41.76-23.58L41.76-23.58 17.37-23.58 14.63-19.89 18.59-19.89 18.59-21.51Q18.59-22.14 18.92-22.45 19.26-22.77 19.8-22.77L19.8-22.77 27.18-22.77Q28.57-22.77 28.57-21.51L28.57-21.51 28.57-19.84 40.45-19.84Q41.71-19.84 41.71-18.54L41.71-18.54 41.76-12.87Q41.76-11.56 40.59-11.56L40.59-11.56 28.53-11.56 28.44 0.32Q28.44 1.26 27.88 1.73 27.31 2.21 26.37 2.25ZM9.27 1.75L9.27 1.75 3.38 1.75Q2.16 1.71 2.16 0.63L2.16 0.63 2.11-2.02Q2.11-2.52 2.16-2.99 2.21-3.46 2.43-3.92L2.43-3.92 5-9.58Q5.26-10.39 6.39-10.39L6.39-10.39 13.09-10.39Q14.08-10.35 14.08-9.4L14.08-9.4 14.08-8.19Q14.04-7.74 14.02-7.27 13.99-6.79 13.77-6.3L13.77-6.3 10.98 0.77Q10.71 1.75 9.27 1.75ZM56.97-18.31L78.34-18.31 78.34-19.84 56.97-19.84 56.97-18.31ZM86.85 2.25L86.85 2.25 69.12 2.25Q67.77 2.25 67.77 0.81L67.77 0.81 67.77-5.63 66.06-5.63 57.47 1.4Q57.02 1.75 56.41 2 55.8 2.25 54.95 2.25L54.95 2.25 48.69 2.25Q47.61 2.25 47.48 1.13L47.48 1.13 47.43-0.77Q47.48-1.62 48.15-2.11L48.15-2.11 53.73-5.63 48.28-5.67Q47.16-5.67 47.16-6.66L47.16-6.66 47.16-10.44Q47.16-11.43 48.38-11.43L48.38-11.43 86.89-11.43Q87.8-11.21 87.8-10.44L87.8-10.44 87.84-6.66Q87.84-5.67 86.76-5.63L86.76-5.63 77.94-5.63 77.94-3.69 86.89-3.69Q87.75-3.65 87.75-2.7L87.75-2.7 87.8 1.4Q87.8 2.25 86.85 2.25ZM62.59-26.46L62.59-26.46 71.23-26.46Q71.73-26.46 71.91-26.41L71.91-26.41Q71.64-26.68 71.64-27.13L71.64-27.13 71.64-27.36 62.91-27.36 62.86-27.22Q62.86-26.73 62.59-26.46ZM72.54-26.05L72.54-26.05 72.54-25.38 86.63-25.38Q87.8-25.38 87.8-24.43L87.8-24.43 87.8-18.77Q87.8-17.95 86.76-17.95L86.76-17.95 86.81-13.46Q86.81-12.46 85.59-12.46L85.59-12.46 49.55-12.46Q48.28-12.46 48.28-13.46L48.28-13.46 48.28-18Q47.38-18 47.38-18.9L47.38-18.9 47.3-24.57Q47.34-25.38 48.42-25.38L48.42-25.38 61.47-25.38 61.47-25.96Q61.47-26.1 61.52-26.14L61.52-26.14 54.99-26.1Q53.64-26.14 53.64-27.36L53.64-27.36 48.51-27.36Q47.2-27.36 47.2-28.53L47.2-28.53 47.2-32.13Q47.25-33.12 48.51-33.12L48.51-33.12 53.69-33.12Q53.69-34.2 54.81-34.24L54.81-34.24 61.61-34.29Q62.77-34.2 62.77-33.16L62.77-33.16 71.64-33.16Q71.64-34.2 72.9-34.24L72.9-34.24 79.56-34.29Q80.82-34.24 80.82-33.16L80.82-33.16 86.35-33.16Q87.75-33.12 87.75-31.9L87.75-31.9 87.8-28.53Q87.8-27.36 86.35-27.36L86.35-27.36 80.95-27.36 80.91-27.04Q80.91-25.96 79.52-25.92L79.52-25.92 73.08-25.96Q72.81-25.96 72.54-26.05ZM122.22-19.35L124.42-19.35 124.42-21.55 122.22-21.55 122.22-19.35ZM122.31-26.5L124.47-26.5 124.47-29.11 122.31-29.11 122.31-26.5ZM131.53 2.11L131.53 2.11 93.47 2.11Q92.16 2.11 92.16 1.4L92.16 1.4 92.16-2.25Q92.16-2.88 93.38-2.88L93.38-2.88 106.56-2.88 106.56-4.86 94.19-4.86Q92.83-4.86 92.83-5.49L92.83-5.49 92.83-8.82Q92.83-9.49 94.09-9.49L94.09-9.49 106.56-9.49 106.56-10.75Q106.56-11.34 106.9-11.61 107.23-11.88 107.78-11.88L107.78-11.88 114.25-11.88 114.66-32.8Q114.66-34.2 116.5-34.2L116.5-34.2 130.45-34.24Q132.66-34.16 132.7-32.76L132.7-32.76 132.7-11.21Q132.7-10.44 131.72-10.39L131.72-10.39 125.37-10.39Q124.52-10.39 124.52-11.25L124.52-11.25 124.52-14.26 122.09-14.26 122-11.12Q122-10.39 121.14-10.39L121.14-10.39 117.18-10.39 117.18-9.49 130.45-9.49Q131.81-9.49 131.81-8.87L131.81-8.87 131.85-5.49Q131.85-4.86 130.63-4.86L130.63-4.86 117.13-4.86 117.13-2.88 131.4-2.88Q132.75-2.88 132.75-2.25L132.75-2.25 132.8 1.4Q132.8 2.11 131.53 2.11ZM99.99-10.17L99.99-10.17 95.44-10.21Q94.95-10.21 94.7-10.44 94.45-10.66 94.45-11.03L94.45-11.03 94.45-12.87Q94.45-13.54 94.86-14.04L94.86-14.04 97.38-16.25 93.73-16.25Q92.25-16.29 92.25-17.37L92.25-17.37 92.25-24.48Q92.34-25.52 93.15-25.52L93.15-25.52 97.42-25.52Q98.55-25.52 98.55-24.75L98.55-24.75 98.55-21.78 99.99-21.78 99.99-26.46 93.51-26.46Q92.66-26.46 92.66-27.27L92.66-27.27 92.66-31.36Q92.66-32.27 93.51-32.22L93.51-32.22 94.32-32.17 94.36-33.16Q94.41-33.66 94.59-33.91 94.77-34.16 95.27-34.2L95.27-34.2 97.97-34.2Q98.69-34.11 99.14-33.84L99.14-33.84 100.8-32.17 104.72-32.17 106.56-33.84Q106.83-34.11 108-34.2L108-34.2 110.47-34.2Q111.47-34.16 111.47-33.16L111.47-33.16 111.47-32.17 112.68-32.17Q113.58-32.17 113.58-31.41L113.58-31.41 113.63-27.27Q113.63-26.46 112.77-26.46L112.77-26.46 106.11-26.46 106.11-21.73 107.37-21.73 107.41-24.43Q107.41-25.43 108.27-25.43L108.27-25.43 113-25.43Q113.81-25.33 113.81-24.57L113.81-24.57 113.81-17.1Q113.81-16.29 112.45-16.25L112.45-16.25 106.47-16.25 101.7-10.89Q101.11-10.26 99.99-10.17ZM146.93-5.54L167.72-5.54 167.72-7.88 146.93-7.88 146.93-5.54ZM146.93-13.72L167.72-13.72 167.72-16.16 146.93-16.16 146.93-13.72ZM175 2.25L175 2.25 139.91 2.25Q137.88 2.25 137.75 0.22L137.75 0.22 137.75-21.42Q137.75-23.54 139.77-23.54L139.77-23.54 150.12-23.54 150.53-25.7 138.51-25.7Q137.21-25.7 137.21-26.95L137.21-26.95 137.21-32.35Q137.21-33.66 138.42-33.75L138.42-33.75 176.4-33.75Q177.75-33.66 177.75-32.45L177.75-32.45 177.8-26.95Q177.8-25.7 176.53-25.7L176.53-25.7 160.02-25.7 159.66-23.54 174.91-23.54Q176.85-23.54 176.85-21.42L176.85-21.42 176.85 0.32Q176.85 2.25 175 2.25Z" transform="translate(-2.109999895095825, 34.290000915527344)"></path></g> <!----> <!----> <!----> <!----> <!----> <!----> <!----></g></g> <g data-gra="path-slogan" fill-rule="" class="tp-slogan iconsvg-slogansvg" fill="#333" transform="translate(-1.4350051879882812,42.540000915527344)"><!----> <!----> <g transform="scale(1, 1)"><g transform="scale(1)"><path d="M4.25 0L0.90 0L0.90-8.27L4.30-8.27Q7.64-8.09 7.78-4.25L7.78-4.25Q7.60-0.09 4.25 0L4.25 0ZM4.11-7.37L2.03-7.37L2.03-0.95L4.20-0.95Q6.56-1.09 6.65-4.16L6.65-4.16Q6.60-7.28 4.11-7.37L4.11-7.37ZM15.73-4.11L15.73-4.11Q15.55-7.37 12.84-7.55L12.84-7.55Q10.08-7.42 9.95-4.11L9.95-4.11Q10.08-0.90 12.84-0.77L12.84-0.77Q15.55-0.95 15.73-4.11ZM16.87-4.11L16.87-4.11Q16.59 0 12.84 0.14L12.84 0.14Q9.04 0 8.77-4.11L8.77-4.11Q9.00-8.41 12.84-8.50L12.84-8.50Q16.59-8.36 16.87-4.11ZM19.53-8.27L23.69-1.58L23.69-8.27L24.78-8.27L24.78 0L23.51 0L19.31-6.69L19.26-6.69L19.26 0L18.18 0L18.18-8.27L19.53-8.27ZM32.69-3.48L30.16-3.48L30.16-4.43L33.78-4.43L33.78 0L33.05 0L32.78-1.04Q31.83 0.09 30.07 0.14L30.07 0.14Q28.39 0.14 27.49-0.72L27.49-0.72Q26.13-1.99 26.18-4.20L26.18-4.20Q26.50-8.32 30.11-8.50L30.11-8.50Q33.19-8.32 33.64-5.79L33.64-5.79L32.55-5.79Q32.10-7.51 30.07-7.55L30.07-7.55Q27.49-7.37 27.35-4.16L27.35-4.16Q27.35-0.72 30.11-0.72L30.11-0.72Q31.11-0.72 31.83-1.27L31.83-1.27Q32.74-1.99 32.69-3.48L32.69-3.48ZM41.69-3.48L39.16-3.48L39.16-4.43L42.77-4.43L42.77 0L42.05 0L41.78-1.04Q40.83 0.09 39.07 0.14L39.07 0.14Q37.39 0.14 36.49-0.72L36.49-0.72Q35.13-1.99 35.18-4.20L35.18-4.20Q35.49-8.32 39.11-8.50L39.11-8.50Q42.19-8.32 42.64-5.79L42.64-5.79L41.55-5.79Q41.10-7.51 39.07-7.55L39.07-7.55Q36.49-7.37 36.35-4.16L36.35-4.16Q36.35-0.72 39.11-0.72L39.11-0.72Q40.11-0.72 40.83-1.27L40.83-1.27Q41.73-1.99 41.69-3.48L41.69-3.48ZM49.96-3.07L49.96-8.27L51.09-8.27L51.09-2.94Q50.96 0.05 47.70 0.14L47.70 0.14Q44.67 0.05 44.54-2.76L44.54-2.76L44.54-8.27L45.67-8.27L45.67-3.07Q45.71-0.81 47.75-0.77L47.75-0.77Q49.96-0.81 49.96-3.07L49.96-3.07ZM58.28 0L57.47-2.40L54.12-2.40L53.26 0L52.13 0L55.25-8.27L56.52-8.27L59.50 0L58.28 0ZM55.80-7.05L54.48-3.39L57.06-3.39L55.84-7.05L55.80-7.05ZM61.85-8.27L66.01-1.58L66.01-8.27L67.10-8.27L67.10 0L65.83 0L61.63-6.69L61.58-6.69L61.58 0L60.50 0L60.50-8.27L61.85-8.27ZM75.55-7.37L73.29-7.37L73.29-4.48L75.51-4.48Q77.23-4.48 77.23-5.97L77.23-5.97Q77.23-7.32 75.55-7.37L75.55-7.37ZM75.92-3.48L73.29-3.48L73.29 0L72.16 0L72.16-8.27L75.92-8.27Q78.27-8.18 78.36-5.97L78.36-5.97Q78.22-3.57 75.92-3.48L75.92-3.48ZM79.71-8.27L80.84-8.27L80.84-0.99L85.05-0.99L85.05 0L79.71 0L79.71-8.27ZM91.61 0L90.79-2.40L87.45-2.40L86.59 0L85.46 0L88.58-8.27L89.84-8.27L92.83 0L91.61 0ZM89.12-7.05L87.81-3.39L90.38-3.39L89.16-7.05L89.12-7.05ZM99.88-5.88L99.88-5.88L98.84-5.88Q98.75-7.46 96.76-7.55L96.76-7.55Q94.91-7.51 94.91-6.10L94.91-6.10Q94.91-5.20 95.90-5.06L95.90-5.06L98.25-4.52Q100.11-4.07 100.11-2.26L100.11-2.26Q100.06 0.05 96.85 0.14L96.85 0.14Q95.09 0.14 94.36-0.59L94.36-0.59Q93.46-1.27 93.50-2.67L93.50-2.67L94.59-2.67Q94.63-0.77 96.85-0.72L96.85-0.72Q99.02-0.77 99.07-2.13L99.07-2.13Q99.25-3.26 97.26-3.62L97.26-3.62L95.54-3.98Q93.78-4.48 93.78-5.97L93.78-5.97Q93.91-8.41 96.67-8.50L96.67-8.50Q99.79-8.50 99.88-5.88ZM103.63-7.32L100.83-7.32L100.83-8.27L107.52-8.27L107.52-7.32L104.72-7.32L104.72 0L103.63 0L103.63-7.32ZM108.70-8.27L109.83-8.27L109.83 0L108.70 0L108.70-8.27ZM118.64-5.83L118.64-5.83L117.56-5.83Q117.15-7.51 115.25-7.55L115.25-7.55Q112.63-7.42 112.54-4.20L112.54-4.20Q112.54-0.77 115.30-0.77L115.30-0.77Q117.20-0.81 117.65-3.07L117.65-3.07L118.73-3.07Q118.24 0.05 115.07 0.14L115.07 0.14Q111.45 0 111.36-4.16L111.36-4.16Q111.54-8.32 115.25-8.50L115.25-8.50Q118.19-8.41 118.64-5.83ZM124.39-4.88L128.73-4.88L128.73-8.27L129.86-8.27L129.86 0L128.73 0L128.73-3.84L124.39-3.84L124.39 0L123.26 0L123.26-8.27L124.39-8.27L124.39-4.88ZM137.05-3.07L137.05-8.27L138.18-8.27L138.18-2.94Q138.04 0.05 134.79 0.14L134.79 0.14Q131.76 0.05 131.62-2.76L131.62-2.76L131.62-8.27L132.75-8.27L132.75-3.07Q132.80-0.81 134.83-0.77L134.83-0.77Q137.05-0.81 137.05-3.07L137.05-3.07ZM141.25-8.27L145.41-1.58L145.41-8.27L146.50-8.27L146.50 0L145.23 0L141.02-6.69L140.98-6.69L140.98 0L139.89 0L139.89-8.27L141.25-8.27ZM151.61 0L148.26 0L148.26-8.27L151.65-8.27Q155.00-8.09 155.13-4.25L155.13-4.25Q154.95-0.09 151.61 0L151.61 0ZM151.47-7.37L149.39-7.37L149.39-0.95L151.56-0.95Q153.91-1.09 154.00-4.16L154.00-4.16Q153.96-7.28 151.47-7.37L151.47-7.37ZM160.51-3.57L157.80-3.57L157.80 0L156.67 0L156.67-8.27L160.51-8.27Q163.27-8.27 163.27-6.06L163.27-6.06Q163.27-4.70 162.09-4.07L162.09-4.07Q163.09-3.80 163.09-2.49L163.09-2.49L163.18-0.99Q163.13-0.36 163.59-0.18L163.59-0.18L163.59 0L162.19 0Q162.05-0.59 162.00-2.08L162.00-2.08Q162.05-3.57 160.51-3.57L160.51-3.57ZM160.60-7.37L157.80-7.37L157.80-4.52L160.42-4.52Q162.09-4.52 162.09-5.97L162.09-5.97Q162.09-7.37 160.60-7.37L160.60-7.37ZM166.12-0.99L171.09-0.99L171.09 0L164.99 0L164.99-8.27L171.00-8.27L171.00-7.32L166.12-7.32L166.12-4.75L170.64-4.75L170.64-3.75L166.12-3.75L166.12-0.99ZM175.93 0L172.58 0L172.58-8.27L175.98-8.27Q179.32-8.09 179.46-4.25L179.46-4.25Q179.28-0.09 175.93 0L175.93 0ZM175.80-7.37L173.72-7.37L173.72-0.95L175.89-0.95Q178.24-1.09 178.33-4.16L178.33-4.16Q178.28-7.28 175.80-7.37L175.80-7.37Z" transform="translate(-0.904295403165034, 8.50037678975132)"></path></g></g></g></g></g><defs v-gra="od"></defs></svg>